<svg width="18" height="10" viewBox="0 0 18 10" fill="none" xmlns="http://www.w3.org/2000/svg">
<path d="M12.7254 2.53126C12.0354 2.53339 11.355 2.69253 10.7353 2.99671C9.06627 0.705217 5.94989 0.0339352 3.49059 1.43617C1.03128 2.83841 0.0110525 5.86828 1.11884 8.47977C1.26461 8.82301 1.60055 9.04577 1.9724 9.04576C2.09742 9.04606 2.22118 9.02071 2.33609 8.97129C2.56247 8.87451 2.74126 8.69146 2.83313 8.46241C2.925 8.23336 2.92242 7.97707 2.82596 7.74993C2.62398 7.27755 2.51982 6.76891 2.51979 6.25489C2.51979 4.19839 4.18131 2.53126 6.2309 2.53126C7.67037 2.52407 8.98142 3.36102 9.58482 4.67235C9.60489 4.70266 9.62657 4.73187 9.64977 4.75985C9.66442 4.79178 9.68084 4.82285 9.69894 4.85294C9.71564 4.87342 9.73976 4.88273 9.75832 4.90228C9.80184 4.94762 9.85005 4.98819 9.90212 5.0233C9.94847 5.0591 9.99819 5.09028 10.0506 5.11639C10.1045 5.13906 10.1604 5.15652 10.2176 5.16852C10.2746 5.18355 10.3331 5.1926 10.392 5.19552C10.5125 5.19455 10.6321 5.17444 10.7464 5.13594C10.7711 5.13137 10.7956 5.12546 10.8197 5.11825C10.8498 5.09872 10.8786 5.07727 10.906 5.05402C10.9394 5.03913 10.9719 5.02234 11.0034 5.00375C11.4907 4.60831 12.0986 4.39273 12.7254 4.39308C13.8102 4.39485 14.7951 5.02886 15.2489 6.01751C15.4616 6.48537 16.0119 6.69168 16.4782 6.47831C16.9445 6.26495 17.1501 5.71271 16.9375 5.24486C16.182 3.59265 14.537 2.53291 12.7254 2.53126Z" fill="white"/>
</svg>
